<svg width="169" height="29" viewBox="0 0 169 29" fill="none" xmlns="http://www.w3.org/2000/svg">
<path d="M24.1204 -0.000782967L23.0404 6.23922H11.7604L10.8804 11.1992H19.1604L18.1204 17.1592H9.8404L7.8804 28.1992H0.000399794L5.0004 -0.000782967H24.1204ZM35.2623 -0.000782967L30.3023 28.1992H22.4223L27.4223 -0.000782967H35.2623ZM60.967 -0.000782967L59.847 6.23922H52.367L48.487 28.1992H40.607L44.487 6.23922H37.047L38.167 -0.000782967H60.967ZM82.1876 7.39922C81.8943 9.05255 81.2009 10.4259 80.1076 11.5192C79.0409 12.5859 77.7343 13.3592 76.1876 13.8392C77.4943 14.0526 78.5609 14.6926 79.3876 15.7592C80.2143 16.7992 80.6276 18.0392 80.6276 19.4792C80.6276 19.9059 80.5876 20.3192 80.5076 20.7192C80.2676 22.1326 79.6809 23.4126 78.7476 24.5592C77.8409 25.6792 76.6409 26.5726 75.1476 27.2392C73.6543 27.8792 71.9743 28.1992 70.1076 28.1992H59.7076L64.6676 0.319218H74.6676C77.1743 0.319218 79.0676 0.852551 80.3476 1.91922C81.6543 2.98588 82.3076 4.37255 82.3076 6.07922C82.3076 6.50588 82.2676 6.94588 82.1876 7.39922ZM78.4276 7.83922C78.4809 7.59922 78.5076 7.26588 78.5076 6.83922C78.5076 5.69255 78.1076 4.79922 77.3076 4.15922C76.5076 3.51922 75.3476 3.19922 73.8276 3.19922H67.7876L66.1476 12.4392H72.2676C73.9476 12.4392 75.3343 12.0392 76.4276 11.2392C77.5209 10.4126 78.1876 9.27922 78.4276 7.83922ZM76.9076 20.3592C76.9876 19.9859 77.0276 19.6392 77.0276 19.3192C77.0276 18.0926 76.5743 17.1192 75.6676 16.3992C74.7609 15.6792 73.5209 15.3192 71.9476 15.3192H65.6276L63.8676 25.3192H70.3076C72.0943 25.3192 73.5743 24.8792 74.7476 23.9992C75.9209 23.1192 76.6409 21.9059 76.9076 20.3592ZM96.9588 28.4792C94.6388 28.4792 92.5988 27.9992 90.8388 27.0392C89.0788 26.0526 87.7055 24.6792 86.7188 22.9192C85.7588 21.1592 85.2788 19.1459 85.2788 16.8792C85.2788 13.7326 85.9855 10.8792 87.3988 8.31922C88.8388 5.73255 90.8122 3.70588 93.3188 2.23922C95.8255 0.745884 98.6255 -0.000782967 101.719 -0.000782967C104.066 -0.000782967 106.119 0.49255 107.879 1.47922C109.666 2.43922 111.039 3.79922 111.999 5.55922C112.959 7.29255 113.439 9.29255 113.439 11.5592C113.439 14.7326 112.719 17.6126 111.279 20.1992C109.866 22.7592 107.906 24.7859 105.399 26.2792C102.892 27.7459 100.079 28.4792 96.9588 28.4792ZM97.4788 25.1992C99.8255 25.1992 101.919 24.5992 103.759 23.3992C105.626 22.1726 107.079 20.5326 108.119 18.4792C109.159 16.4259 109.679 14.1992 109.679 11.7992C109.679 9.15922 108.919 7.07922 107.399 5.55922C105.879 4.03922 103.812 3.27922 101.199 3.27922C98.8522 3.27922 96.7455 3.89255 94.8788 5.11922C93.0388 6.31922 91.5988 7.94589 90.5588 9.99922C89.5455 12.0259 89.0388 14.2392 89.0388 16.6392C89.0388 19.2792 89.7855 21.3726 91.2788 22.9192C92.7988 24.4392 94.8655 25.1992 97.4788 25.1992ZM129.324 0.319218C133.297 0.319218 136.377 1.27922 138.564 3.19922C140.777 5.11922 141.884 7.78588 141.884 11.1992C141.884 12.2659 141.791 13.3059 141.604 14.3192C141.097 17.1726 140.057 19.6526 138.484 21.7592C136.937 23.8392 134.951 25.4392 132.524 26.5592C130.124 27.6526 127.404 28.1992 124.364 28.1992H115.684L120.644 0.319218H129.324ZM124.884 25.3992C128.457 25.3992 131.364 24.4259 133.604 22.4792C135.844 20.5059 137.271 17.7859 137.884 14.3192C138.044 13.3592 138.124 12.4526 138.124 11.5992C138.124 8.95922 137.337 6.91922 135.764 5.47922C134.191 4.01255 131.871 3.27922 128.804 3.27922H123.764L119.844 25.3992H124.884ZM168.445 0.319218L156.285 17.6792L154.405 28.1992H150.765L152.645 17.6792L146.565 0.319218H150.645L155.005 14.3592L164.325 0.319218H168.445Z" fill="#E2F163"/>
</svg>
