<svg width="127" height="18" viewBox="0 0 127 18" fill="none" xmlns="http://www.w3.org/2000/svg">
<path d="M18.0164 17.5195H13.4454L10.5933 5.79278H11.2809L8.42877 17.5195H3.83229L-0.00023018 0.712458H4.36706L6.39155 12.5029H6.34062L9.49831 0.712458H12.3632L15.5336 12.5029H15.4826L17.5071 0.712458H21.8744L18.0164 17.5195ZM26.377 13.114C26.4025 13.4875 26.5213 13.8186 26.7335 14.1072C26.9457 14.3958 27.2386 14.625 27.6121 14.7947C27.994 14.956 28.4439 15.0367 28.9617 15.0367C29.4541 15.0367 29.8955 14.9857 30.2859 14.8839C30.6849 14.782 31.0287 14.6547 31.3173 14.5019C31.6144 14.3491 31.8435 14.1921 32.0048 14.0308L33.5073 16.4245C33.2951 16.6537 32.9937 16.8787 32.6033 17.0994C32.2213 17.3116 31.7162 17.4856 31.0881 17.6214C30.4599 17.7572 29.6663 17.8251 28.7071 17.8251C27.5527 17.8251 26.5256 17.6087 25.6258 17.1758C24.726 16.7428 24.0172 16.1062 23.4994 15.2659C22.9816 14.4255 22.7227 13.3984 22.7227 12.1846C22.7227 11.1659 22.9434 10.2492 23.3848 9.43431C23.8347 8.61093 24.4841 7.96157 25.3329 7.48622C26.1818 7.00238 27.2046 6.76046 28.4015 6.76046C29.5389 6.76046 30.5236 6.96842 31.3555 7.38436C32.1958 7.80029 32.8409 8.41994 33.2908 9.24332C33.7492 10.0582 33.9784 11.0768 33.9784 12.2992C33.9784 12.3671 33.9741 12.5029 33.9657 12.7066C33.9657 12.9103 33.9572 13.0461 33.9402 13.114H26.377ZM30.3369 11.0896C30.3284 10.8179 30.2562 10.5505 30.1204 10.2874C29.9846 10.0158 29.7809 9.79507 29.5092 9.6253C29.2376 9.44704 28.8896 9.35791 28.4652 9.35791C28.0407 9.35791 27.68 9.4428 27.3829 9.61257C27.0943 9.77385 26.8736 9.98606 26.7208 10.2492C26.568 10.5123 26.4831 10.7925 26.4661 11.0896H30.3369ZM39.8493 17.5195H35.9659V-0.000569229H39.8493V17.5195ZM48.0109 14.782C48.4948 14.782 48.8937 14.7014 49.2078 14.5401C49.5219 14.3703 49.7341 14.2345 49.8444 14.1327L51.6143 16.7556C51.4785 16.8659 51.245 17.0102 50.914 17.1885C50.5829 17.3583 50.167 17.5068 49.6662 17.6341C49.1739 17.7615 48.6094 17.8251 47.9727 17.8251C46.7759 17.8251 45.7233 17.6002 44.815 17.1503C43.9068 16.6919 43.198 16.0468 42.6887 15.2149C42.1879 14.3831 41.9375 13.4069 41.9375 12.2864C41.9375 11.1575 42.1879 10.1813 42.6887 9.35791C43.198 8.53454 43.9068 7.89791 44.815 7.44802C45.7233 6.98965 46.7759 6.76046 47.9727 6.76046C48.6009 6.76046 49.1611 6.82837 49.6534 6.96418C50.1543 7.09151 50.5744 7.24005 50.914 7.40982C51.2535 7.5711 51.4912 7.71116 51.627 7.83L49.819 10.4784C49.7596 10.419 49.6492 10.3341 49.4879 10.2237C49.3351 10.1134 49.1357 10.0158 48.8895 9.93088C48.6433 9.846 48.3505 9.80356 48.0109 9.80356C47.595 9.80356 47.2045 9.90966 46.8395 10.1219C46.483 10.3341 46.1944 10.6269 45.9737 11.0004C45.753 11.3739 45.6427 11.8026 45.6427 12.2864C45.6427 12.7703 45.753 13.2032 45.9737 13.5851C46.1944 13.9586 46.483 14.2515 46.8395 14.4637C47.2045 14.6759 47.595 14.782 48.0109 14.782ZM58.5098 17.8251C57.3639 17.8251 56.3452 17.5917 55.454 17.1248C54.5712 16.6495 53.8751 16.0001 53.3658 15.1767C52.865 14.3449 52.6146 13.3942 52.6146 12.3246C52.6146 11.2551 52.865 10.3044 53.3658 9.47251C53.8751 8.63215 54.5712 7.97006 55.454 7.48622C56.3452 7.00238 57.3639 6.76046 58.5098 6.76046C59.6557 6.76046 60.6658 7.00238 61.5402 7.48622C62.4145 7.97006 63.0978 8.63215 63.5901 9.47251C64.0824 10.3044 64.3286 11.2551 64.3286 12.3246C64.3286 13.3942 64.0824 14.3449 63.5901 15.1767C63.0978 16.0001 62.4145 16.6495 61.5402 17.1248C60.6658 17.5917 59.6557 17.8251 58.5098 17.8251ZM58.5098 14.642C58.9512 14.642 59.3332 14.5443 59.6557 14.3491C59.9783 14.1539 60.2287 13.878 60.407 13.5215C60.5852 13.165 60.6743 12.7618 60.6743 12.3119C60.6743 11.8535 60.5852 11.4461 60.407 11.0896C60.2287 10.733 59.9783 10.4529 59.6557 10.2492C59.3332 10.0455 58.9512 9.94362 58.5098 9.94362C58.0684 9.94362 57.6822 10.0455 57.3511 10.2492C57.0286 10.4529 56.7739 10.733 56.5872 11.0896C56.4089 11.4461 56.3198 11.8535 56.3198 12.3119C56.3198 12.7618 56.4089 13.165 56.5872 13.5215C56.7739 13.878 57.0286 14.1539 57.3511 14.3491C57.6822 14.5443 58.0684 14.642 58.5098 14.642ZM80.7181 6.76046C81.5075 6.76046 82.2036 6.92598 82.8062 7.25703C83.4089 7.57959 83.88 8.08041 84.2196 8.75948C84.5676 9.43855 84.7416 10.3129 84.7416 11.3824V17.5195H80.9345V11.9681C80.9345 11.2381 80.8242 10.6482 80.6035 10.1983C80.3828 9.74838 79.9456 9.52344 79.292 9.52344C78.9016 9.52344 78.5578 9.6253 78.2607 9.82902C77.9636 10.0327 77.7344 10.3171 77.5731 10.6821C77.4118 11.0386 77.3312 11.4673 77.3312 11.9681V17.5195H73.7788V11.9681C73.7788 11.2381 73.6557 10.6482 73.4096 10.1983C73.1719 9.74838 72.7475 9.52344 72.1363 9.52344C71.7458 9.52344 71.402 9.6253 71.1049 9.82902C70.8078 10.0243 70.5787 10.3044 70.4174 10.6694C70.2646 11.0259 70.1882 11.4588 70.1882 11.9681V17.5195H66.3429V7.06604H70.1882V8.55576C70.2901 8.29262 70.5108 8.02523 70.8503 7.7536C71.1983 7.47349 71.627 7.24005 72.1363 7.05331C72.6456 6.85807 73.1846 6.76046 73.7533 6.76046C74.373 6.76046 74.8908 6.85383 75.3067 7.04058C75.7226 7.21883 76.0622 7.46075 76.3253 7.76634C76.597 8.07192 76.8134 8.40297 76.9747 8.75948C77.0935 8.4539 77.327 8.14831 77.675 7.84273C78.0315 7.52866 78.4729 7.26976 78.9992 7.06604C79.5339 6.86232 80.1069 6.76046 80.7181 6.76046ZM90.065 13.114C90.0905 13.4875 90.2093 13.8186 90.4215 14.1072C90.6338 14.3958 90.9266 14.625 91.3001 14.7947C91.6821 14.956 92.132 15.0367 92.6498 15.0367C93.1421 15.0367 93.5835 14.9857 93.9739 14.8839C94.3729 14.782 94.7167 14.6547 95.0053 14.5019C95.3024 14.3491 95.5316 14.1921 95.6929 14.0308L97.1953 16.4245C96.9831 16.6537 96.6818 16.8787 96.2913 17.0994C95.9093 17.3116 95.4042 17.4856 94.7761 17.6214C94.148 17.7572 93.3543 17.8251 92.3951 17.8251C91.2407 17.8251 90.2136 17.6087 89.3138 17.1758C88.414 16.7428 87.7052 16.1062 87.1875 15.2659C86.6697 14.4255 86.4108 13.3984 86.4108 12.1846C86.4108 11.1659 86.6315 10.2492 87.0729 9.43431C87.5227 8.61093 88.1721 7.96157 89.021 7.48622C89.8698 7.00238 90.8927 6.76046 92.0895 6.76046C93.227 6.76046 94.2116 6.96842 95.0435 7.38436C95.8838 7.80029 96.529 8.41994 96.9788 9.24332C97.4372 10.0582 97.6664 11.0768 97.6664 12.2992C97.6664 12.3671 97.6622 12.5029 97.6537 12.7066C97.6537 12.9103 97.6452 13.0461 97.6282 13.114H90.065ZM94.0249 11.0896C94.0164 10.8179 93.9442 10.5505 93.8084 10.2874C93.6726 10.0158 93.4689 9.79507 93.1973 9.6253C92.9256 9.44704 92.5776 9.35791 92.1532 9.35791C91.7288 9.35791 91.368 9.4428 91.0709 9.61257C90.7823 9.77385 90.5616 9.98606 90.4088 10.2492C90.256 10.5123 90.1711 10.7925 90.1542 11.0896H94.0249ZM105.515 7.06604H107.297V2.77514H111.13V7.06604H113.473V10.2492H111.13V13.165C111.13 13.5979 111.193 13.9502 111.321 14.2218C111.448 14.4849 111.682 14.6165 112.021 14.6165C112.25 14.6165 112.445 14.5656 112.607 14.4637C112.768 14.3618 112.866 14.2939 112.9 14.26L114.224 17.0102C114.164 17.0612 113.978 17.1545 113.664 17.2903C113.358 17.4262 112.968 17.5492 112.492 17.6596C112.017 17.7699 111.486 17.8251 110.901 17.8251C109.857 17.8251 108.995 17.5323 108.316 16.9466C107.637 16.3524 107.297 15.4399 107.297 14.209V10.2492H105.515V7.06604ZM120.979 17.8251C119.833 17.8251 118.815 17.5917 117.923 17.1248C117.041 16.6495 116.345 16.0001 115.835 15.1767C115.334 14.3449 115.084 13.3942 115.084 12.3246C115.084 11.2551 115.334 10.3044 115.835 9.47251C116.345 8.63215 117.041 7.97006 117.923 7.48622C118.815 7.00238 119.833 6.76046 120.979 6.76046C122.125 6.76046 123.135 7.00238 124.01 7.48622C124.884 7.97006 125.567 8.63215 126.06 9.47251C126.552 10.3044 126.798 11.2551 126.798 12.3246C126.798 13.3942 126.552 14.3449 126.06 15.1767C125.567 16.0001 124.884 16.6495 124.01 17.1248C123.135 17.5917 122.125 17.8251 120.979 17.8251ZM120.979 14.642C121.421 14.642 121.803 14.5443 122.125 14.3491C122.448 14.1539 122.698 13.878 122.876 13.5215C123.055 13.165 123.144 12.7618 123.144 12.3119C123.144 11.8535 123.055 11.4461 122.876 11.0896C122.698 10.733 122.448 10.4529 122.125 10.2492C121.803 10.0455 121.421 9.94362 120.979 9.94362C120.538 9.94362 120.152 10.0455 119.821 10.2492C119.498 10.4529 119.243 10.733 119.057 11.0896C118.878 11.4461 118.789 11.8535 118.789 12.3119C118.789 12.7618 118.878 13.165 119.057 13.5215C119.243 13.878 119.498 14.1539 119.821 14.3491C120.152 14.5443 120.538 14.642 120.979 14.642Z" fill="#E2F163"/>
</svg>
